# Blender v2.79 (sub 0) OBJ File: 'tpad.blend'
# www.blender.org
mtllib tpad-mesh.mtl
o Cube
v -0.500000 -0.500000 -0.500000
v 0.500000 -0.500000 -0.500000
v 0.500000 -0.500000 0.500000
v -0.500000 -0.500000 0.500000
v -0.429289 -0.300000 -0.429289
v 0.429289 -0.300000 -0.429289
v 0.429289 -0.300000 0.429289
v -0.429289 -0.300000 0.429289
v -0.500000 -0.380000 -0.500000
v 0.500000 -0.380000 -0.499999
v -0.500000 -0.380000 0.500000
v 0.500000 -0.380000 0.500000
vt 0.078125 0.421875
vt 0.078125 0.000000
vt 0.484375 0.000000
vt 0.484375 0.421875
vt 0.093750 0.515625
vt 0.468750 0.515625
vt 0.468750 0.890625
vt 0.093750 0.890625
vt -0.000000 0.484375
vt 0.046875 0.484375
vt 0.046875 0.921875
vt -0.000000 0.921875
vt 0.078125 0.984375
vt 0.078125 0.937500
vt 0.484375 0.937500
vt 0.484375 0.984375
vt 0.562500 0.921875
vt 0.515625 0.921875
vt 0.515625 0.484375
vt 0.562500 0.484375
vt 0.078125 0.468750
vt 0.484375 0.468750
vn 0.0000 -1.0000 0.0000
vn 0.0000 1.0000 -0.0000
vn 0.0000 0.0000 -1.0000
vn 1.0000 -0.0000 0.0000
vn -0.0000 -0.0000 1.0000
vn -1.0000 0.0000 -0.0000
vn 0.0000 0.6623 -0.7493
vn -0.7493 0.6623 -0.0000
vn 0.7493 0.6623 0.0000
vn -0.0000 0.6623 0.7493
usemtl Material
s off
f 1/1/1 2/2/1 3/3/1 4/4/1
f 5/5/2 8/6/2 7/7/2 6/8/2
f 1/9/3 9/10/3 10/11/3 2/12/3
f 2/13/4 10/14/4 12/15/4 3/16/4
f 3/17/5 12/18/5 11/19/5 4/20/5
f 9/21/6 1/1/6 4/4/6 11/22/6
f 5/5/7 6/8/7 10/11/7 9/10/7
f 8/6/8 5/5/8 9/21/8 11/22/8
f 6/8/9 7/7/9 12/15/9 10/14/9
f 7/7/10 8/6/10 11/19/10 12/18/10
